<?xml version="1.0" standalone="no"?>
<!DOCTYPE svg PUBLIC "-//W3C//DTD SVG 20010904//EN"
 "http://www.w3.org/TR/2001/REC-SVG-20010904/DTD/svg10.dtd">
<svg version="1.0" xmlns="http://www.w3.org/2000/svg"
 width="200.000000pt" height="200.000000pt" viewBox="0 0 200.000000 200.000000"
 preserveAspectRatio="xMidYMid meet">
<metadata>
Created by potrace 1.16, written by Peter Selinger 2001-2019 
</metadata>
<g transform="translate(0.000000,200.000000) scale(0.100000,-0.100000)"
fill="#000000" stroke="none">
<path d="M945 1573 c-375 -32 -761 -420 -656 -659 12 -27 32 -59 44 -72 24
-26 88 -62 110 -62 12 0 15 -22 14 -117 -1 -95 2 -125 16 -154 59 -120 179
-118 330 5 49 41 58 45 63 29 27 -87 70 -123 145 -123 117 0 289 151 449 396
119 181 251 503 266 647 6 60 5 65 -17 81 -29 20 -58 21 -85 1 -17 -11 -22
-28 -27 -97 -11 -152 -88 -368 -198 -553 -113 -190 -208 -297 -277 -311 -25
-5 -33 -2 -49 22 -28 44 -23 219 10 346 40 152 131 333 242 480 l55 73 -21 18
c-59 48 -124 4 -233 -158 -124 -184 -228 -435 -261 -629 -5 -30 -20 -52 -61
-92 -76 -74 -123 -84 -144 -29 -25 67 -3 287 42 420 68 199 223 409 343 467
50 24 60 35 47 54 -8 13 -89 22 -147 17z m-102 -105 c-128 -108 -235 -277
-322 -508 l-40 -105 -20 45 c-54 119 1 308 128 439 60 61 118 100 209 137 78
32 91 30 45 -8z"/>
</g>
</svg>
