<svg version="1.2" xmlns="http://www.w3.org/2000/svg" viewBox="0 0 272 470" width="272" height="470"><style>.a{fill:#fff}</style><path fill-rule="evenodd" class="a" d="m13.4 23.5l1.4 2.2 1.3 2.5 1.4 2.4 1.3 2.4 1.4 2.2 1.5 2.5 1.4 2.4 1.3 2.4 1.2-0.9 1.3-0.7 1.4-0.6 1.1-0.7 1.4-0.6 1.1-0.6 1.4-0.6 1.1-0.7 1.4-0.5 1.3-0.5 1.2-0.5 1.3-0.5 1.4-0.4 1.3-0.5 1.2-0.3 1.4-0.6 0.3 0.9 0.4 0.9 0.4 1 0.6 0.9 1.9-0.7 2.1-0.7 2-0.7 1.9-0.7 2.1-0.7 1.9-0.5 2.2-0.5 1.9-0.7 2.1-0.5 2.1-0.5 2-0.6 2.1-0.3 2.1-0.5 2.1-0.4 1.9-0.3 2.2-0.5-0.2-0.9v-0.9l-0.2-0.8-0.2-0.7 1.7-0.5 1.7-0.4 1.6-0.5 1.7-0.4 2-0.3 1.7-0.3 1.7-0.2 2-0.4 1.7-0.1 1.9-0.4 1.9-0.2 1.8-0.1 1.9-0.2 1.9-0.2h2l1.9-0.1v1 0.9l0.2 0.8v0.9l3.4-0.4 3.5-0.3 3.5-0.4 3.7-0.3 3.4-0.2 3.7-0.1 3.5-0.2h3.6 3.7l3.6 0.2h1.8 1.9l1.7 0.1h2l1.7 0.2 1.9 0.2 1.8 0.1h1.7l1.9 0.2 1.8 0.4 1.9 0.1 1.7 0.2v-0.7l0.2-0.8 0.2-0.9v-0.9l1.9 0.2 1.8 0.2h1.7l1.7 0.1 2 0.2 1.7 0.2 1.7 0.3 1.8 0.2 1.9 0.2 1.7 0.3 1.8 0.2 1.7 0.3 1.9 0.4 1.8 0.3 1.7 0.4 1.7 0.3-0.2 0.9-0.2 1-0.1 0.9-0.2 0.9 1.9 0.3 1.7 0.4 2 0.3 1.9 0.3 1.9 0.6 1.9 0.3 2.2 0.5 1.9 0.5 2.1 0.7 2.1 0.6 2 0.6 2.1 0.6 2.3 0.7 2.1 0.6 2.1 0.7 2.2 0.7 0.3-0.8 0.4-0.9 0.2-0.3 0.2-0.4 0.2-0.5 0.2-0.4 1.1 0.4 1.4 0.5 1.2 0.4 1.3 0.3 1.2 0.5 1.3 0.5 1.4 0.6 1.1 0.5 1.4 0.7 1.3 0.5 1.2 0.7 1.3 0.7 2.7 1.3 2.7 1.6 1.4-2.4 1.3-2.4 1.4-2.5 1.3-2.2 1.4-2.4 1.3-2.4 1.6-2.5 1.3-2.2-7.7-2.9-7.7-2.6-7.7-2.4-7.5-2.3-7.7-2.1-7.8-1.9-7.7-1.7-7.7-1.5-7.5-1.4-7.7-1.1-7.7-1-7.7-0.9-7.7-0.5-7.6-0.5-7.7-0.3h-7.7-7.7l-7.5 0.3-7.7 0.5-7.7 0.5-7.8 0.9-7.7 1-7.5 1.1-7.7 1.4-7.7 1.5-7.7 1.7-7.7 1.9-7.5 2.1-7.7 2.3-7.8 2.4-7.7 2.6zm221.7 43.2l-6-1.4-6-1.4-6.1-1.3-6-1.3-6.1-1.1-6-0.9-6.1-1-6-0.8-6.2-0.6-6.1-0.6-6-0.5-6.1-0.3-6-0.3-6-0.2-6.1-0.1h-6l-6.3 0.1-6 0.2-6.1 0.3-6 0.3-6 0.5-6.1 0.5-6 0.6-6.3 0.8-6 0.8-6 0.9-6.1 0.8-6 1.1-6.1 1.1-6 1.3-6.2 1.2-6.1 1.3-1.3-2.2-1.4-2.2-1.6-2.2-1.3-2.2-1.6-2.3-1.4-2.2-1.5-2.3-1.6-2.2 2.4-1 2.5-1.1 2.3-0.9 2.2-1 1.1-0.5 1.2-0.3 1.2-0.4 1.2-0.4 1.1-0.3 1.2-0.3 1.2-0.3 1.1-0.3 0.2 0.8 0.4 0.8 0.4 0.7 0.4 0.8 2.1-0.8 2.2-0.7 2.3-0.7 2.2-0.8 2.1-0.6 2.2-0.6 2.3-0.7 2.1-0.4 2.2-0.5 2.3-0.5 2.2-0.5 2.3-0.4 2.3-0.3 2.2-0.4 2.3-0.3 2.2-0.3-0.2-0.8-0.4-0.9-0.2-1-0.2-0.8 1.5-0.4 1.4-0.4 1.4-0.3 1.5-0.3 1.6-0.1 1.6-0.3 1.3-0.2 1.6-0.3 1.5-0.2 1.6-0.1 1.4-0.2 1.5-0.2 1.6-0.1h1.5l1.6-0.2h1.6v3.3l3.9-0.4 3.7-0.2 3.7-0.3 3.7-0.3 3.9-0.2h3.7l3.7-0.1h3.9 3.9 3.7l1.9 0.1h2l1.7 0.2h2l1.9 0.1 2 0.2 1.7 0.1 2 0.2 1.9 0.2 2 0.1 1.7 0.2 2 0.3 0.2-0.8v-0.8l0.2-0.8v-0.8h1.5 1.4l1.5 0.2 1.6 0.2h1.4l1.5 0.1 1.6 0.2 1.3 0.3 1.6 0.2 1.6 0.1 1.5 0.3 1.6 0.2 1.5 0.3 1.6 0.3 1.6 0.3 1.5 0.3-0.2 0.8-0.2 1-0.2 0.8v0.8l2 0.3 2.1 0.3 2.2 0.5 2.1 0.3 2.2 0.4 2.1 0.5 2.2 0.5 2.1 0.5 2.1 0.4 2.4 0.7 2.1 0.6 2.2 0.5 2.1 0.8 2.4 0.6 2.1 0.6 2.3 0.8 0.2-0.8 0.4-0.8 0.2-0.9 0.4-0.8 1.2 0.3 1.1 0.3 1 0.4 1.2 0.3 1.2 0.4 1.1 0.4 1.2 0.4 1.2 0.5 1.1 0.5 1.2 0.4 1.2 0.5 1.1 0.7 1.2 0.4 1.2 0.7 1 0.4 1.1 0.7-1.3 2.2-1.6 2.3-1.6 2.2-1.3 2.3-1.6 2.2-1.4 2.2-1.5 2.2zm27.7 16.7l-8.6-2.4-8.4-2.1-8.6-1.9-8.4-1.9-8.4-1.6-8.6-1.6-8.4-1.4-8.4-1-8.6-1-8.4-0.9-8.6-0.7-8.4-0.7-8.4-0.3-8.4-0.2-8.6-0.2-8.4 0.2-8.4 0.2-8.6 0.3-8.4 0.7-8.4 0.7-8.4 0.9-8.6 1-8.4 1-8.4 1.4-8.6 1.6-8.4 1.6-8.6 1.9-8.4 1.9-8.6 2.1-8.4 2.4-8.4 2.4v17.8 17.8 18 17.8 18 17.8 18 17.8 18 17.8 18 17.8 18 17.8 18 18l0.2 4 0.6 4 0.7 4 1.3 4 1.6 4 1.8 4 2.2 4 2.6 3.8 2.7 4 3.1 3.8 3.5 3.8 3.5 3.6 4 3.6 4 3.5 4.4 3.6 4.6 3.3 4.8 3.3 5.1 3.3 5.1 2.9 5.3 3.1 5.5 2.8 5.7 2.8 5.9 2.6 6 2.4 6 2.3 6.2 2.1 6.2 2.1 6.4 1.7 6.4 1.7 6.6 1.4 6.6 1.2 6.6 1 6.4-1 6.2-1.2 6.4-1.6 6.2-1.5 6.2-1.9 6.2-2.1 6-2.1 6-2.4 5.9-2.4 5.9-2.8 5.7-2.8 5.5-2.9 5.5-3.1 5.1-3.1 5.1-3.3 4.9-3.3 4.8-3.5 4.4-3.6 4.2-3.6 4-3.6 3.8-3.6 3.5-3.8 3.3-3.8 2.9-3.8 2.7-3.8 2.2-4 2-3.8 1.6-3.8 1.5-4 0.9-3.8 0.6-3.8 0.2-3.6v-18-18-17.8-18-17.8-18-17.8-18-18.1-18-17.8-18-17.8-18-17.8-17.8zm-11.5 265.9v2.1l-0.2 2.2-0.2 2.3-0.6 2.8-0.9 2.4-1.1 2.6-1.1 2.4-1.5 2.4-1.5 2.4-1.8 2.3-1.8 2.1-2 1.9-2 2.1-2.2 1.7-2.4 1.6-2.4 1.4-2.4 1.4-2.4 1-2.6 0.9-2.6 0.7-2.4 0.5-2.6 0.2h-2.4l-2.6-0.2-2.4-0.5-2.4-0.7-1.8-1.3-2.2-1.4-2-1.6-1.8-2.1-1.8-2.2-1.6-2.6-1.5-3.1-1.3-3.3-1.3-3.8 1.1 1.7 1.3 1.7 0.6 0.9 0.5 0.9 0.6 0.9 0.7 0.9 0.6 0.7 0.7 0.9 0.7 0.7 0.6 0.7 0.7 0.7 0.7 0.7 0.9 0.7 0.7 0.5 0.7 0.5 0.9 0.5 0.7 0.5 0.9 0.5 0.9 0.3 0.9 0.3 0.9 0.3 1.1 0.3 0.9 0.2 1.1 0.2 1.1 0.2h1.1 1.3 1.1l1.3-0.2 1.3-0.2 1.1-0.2 1.1-0.3 1.1-0.3 0.9-0.3 1.1-0.5 0.9-0.3 0.9-0.5 0.9-0.7 0.7-0.5 0.9-0.7 0.7-0.7 0.7-0.7 0.7-0.9 0.5-0.7 0.7-0.9 0.5-0.9 0.5-0.9 0.4-0.9 0.6-0.9 0.4-1 0.4-0.9 0.4-1 0.2-1 0.4-1 0.2-1 0.2-0.9v-1-1.2l0.2-1-0.2-1v-1l-0.2-1v-1.1l-0.2-0.9-0.2-0.7-0.2-0.9-0.4-0.9-0.2-0.7-0.4-0.7-0.4-0.7v-0.5l-0.4-0.7-0.4-0.7-0.5-0.7-0.4-0.5-0.5-0.7-0.6-0.5-0.5-0.7-0.6-0.5-0.7-0.5-0.5-0.5-0.7-0.3-0.7-0.5-0.7-0.3-0.7-0.5-0.7-0.3-0.7-0.3-0.9-0.3-0.7-0.3-0.9-0.3-0.9-0.4-0.9-0.2-0.9-0.3-0.9-0.2-2.8-0.5h-2.8l-2.4 0.2-2.4 0.7-2.2 0.9-2.2 1.4-2.2 1.6-2 1.7-2 2.1-2 2.3-1.8 2.2-2 2.6-2 2.6-1.8 2.8-2 2.8-2 2.9-2 2.9-2 2.8-2.2 2.9-2.2 2.8-2.2 2.6-2.4 2.6-2.4 2.4-2.6 2.2-2.7 2.1-2.7 1.9-2.9 1.6-3.1 1.4-3.3 1-3.5 0.7-3.5 0.3h-3.8-2.5-2.4l-2.2-0.2-2.2-0.3-2.2-0.5-2.2-0.7-2.2-0.7-2-0.7-2.2-1-2-1-2-1-2-1.2-1.8-1.4-2-1.4-1.8-1.6-1.8-1.6-1.8-1.7-1.8-1.7-1.8-1.7-1.8-1.9-1.7-1.9-1.8-2.1-1.6-2.1-1.8-2.2-1.9-2.7-1.6-2.2-1.6-2.2-1.6-2.4-1.6-2.4-1.6-2.2-1.5-2.6-1.6-2.4-0.9-1.2-1.1-1-1.1-1-1.3-0.9-1.1-0.9-1.3-0.7-1.5-0.7-1.3-0.5-1.5-0.5-1.3-0.5-1.5-0.2-1.5-0.2-1.6-0.2h-1.5l-1.5 0.2-1.5 0.2-1.5 0.3-1.3 0.3-1.5 0.5-1.5 0.7-1.3 0.7-1.3 0.9-1.3 1-1.1 1.2-1.1 1.2-1.1 1.4-0.9 1.4-0.9 1.6-0.9 1.7-0.6 1.9-0.7 2.1-0.4 2.1v1.2 1 0.9l0.2 1v1l0.2 0.9 0.2 1 0.4 0.9 0.2 0.9 0.4 0.9 0.2 0.9 0.4 0.7 0.5 0.9 0.4 0.7 0.5 0.7 0.4 0.7 0.6 0.9 0.5 0.5 0.5 0.7 0.7 0.7 0.5 0.5 0.7 0.7 0.7 0.5 0.7 0.5 0.9 0.5 0.7 0.5 0.9 0.3 0.9 0.5 0.9 0.5 0.9 0.3 0.9 0.4 1.1 0.3 1.1 0.3 0.9 0.2 1.1 0.2 1.1 0.2h1.1 0.9l0.9-0.2h1.1l0.9-0.2 0.9-0.3 0.9-0.2 0.9-0.3 0.9-0.4 0.9-0.5 0.9-0.3 0.7-0.5 0.9-0.5 0.7-0.7 0.7-0.7 0.9-0.5 0.7-0.9 0.7-0.7 0.7-0.9 0.7-0.7 0.7-0.9 0.7-1 0.7-0.9 0.6-1 0.7-0.9 0.7-1 0.5-1 0.7-1.2-0.5 1.7-0.4 1.6-0.6 1.4-0.5 1.4-0.4 1.4-0.7 1.2-0.5 1.2-0.6 1.2-0.7 1-0.7 1.2-0.7 0.9-0.7 1-0.7 0.9-0.9 0.7-0.7 0.9-0.9 0.7-0.9 0.7-0.9 0.5-0.9 0.5-1.1 0.5-0.9 0.3-1.1 0.3-1.1 0.2-1.1 0.3-1.3 0.2-1.1 0.2h-1.3-1.3-1.3l-1.3-0.2-1.3-0.2-1.5-0.2-3.1-1-2.9-1-2.8-1.2-2.7-1.4-2.6-1.7-2.4-1.6-2.2-1.9-2-1.9-1.8-2.2-1.8-2.1-1.6-2.2-1.3-2.4-1.3-2.4-1.1-2.4-0.9-2.6-0.9-2.6-0.6-2.6-0.4-2.6-0.2-2.6-0.2-2.6 0.2-2.8 0.4-2.6 0.4-2.4 0.7-2.6 0.9-2.4 0.9-2.4 1.3-2.4 1.5-2.1 1.6-2.2 1.8-2.1 2-1.9 2.2-1.7 2.4-1.4 2.4-1.4 2.4-1 2.2-1 2.4-0.9 2.2-0.7 2.2-0.7 2.2-0.5 2-0.3 2.2-0.2 2-0.2h2.2 2l2 0.3 1.8 0.2 2 0.5 2 0.5 1.8 0.7 1.8 0.7 1.8 0.9 1.8 1 1.8 1 1.8 1.2 1.7 1.2 1.8 1.4 1.6 1.6 1.6 1.6 1.6 1.6 1.6 1.9 1.7 1.7 1.6 2.1 1.5 1.9 1.3 2.2 1.3 2.3 1.3 2.3 1.3 2.1 1.5 2.3 1.5 2.1 1.5 2.1 1.5 2.2 1.5 2.1 1.6 2.1 0.9 1 0.7 1 0.9 1 0.9 1 0.7 0.9 1.1 1 0.7 1 1.1 1 0.9 0.9 0.9 1 1.1 1 0.9 0.9 1.8 1 1.8 1 1.8 0.7 1.8 0.9 1.6 0.5 1.6 0.5 1.6 0.3 1.6 0.3 1.5 0.2h1.5 1.5l1.5-0.2 1.3-0.2 1.3-0.3 1.3-0.3 1.1-0.5 1.1-0.5 1.1-0.7 1.1-0.9 0.9-0.9 0.9-0.9 0.9-1.2 0.7-1 0.7-1.2 0.7-1.2 0.6-1.4 0.5-1.6 0.4-1.6 0.5-1.6 0.4-1.7 0.2-1.7 0.2-1.9v-2.1l-0.2-2.1-0.4-2.1-0.5-1.9-0.7-1.7-0.7-1.7-0.9-1.7-0.9-1.6-1.1-1.4-1.3-1.4-1.3-1.2-1.5-1.2-1.7-1-1.6-0.9-1.7-0.9-1.8-0.9-1.8-0.7-1.8-0.5-2-0.3-2-0.3-2.2-0.3h-2.2-2.2-2.2l-2.2 0.2-2.4 0.3-2.2 0.5-2.4 0.5-2.4 0.7-2.4 0.7-2.4 0.9-2.2 1 1.7-1.9 2-1.9 2-1.7 2-1.6 2-1.2 2.2-1.2 2.2-1.2 2.4-0.9 2.4-0.7 2.2-0.5 2.4-0.5 2.4-0.2 2.6-0.2h2.4l2.4 0.2 2.4 0.3 2.4 0.3 2.4 0.7 2.2 0.7 2.4 0.9 2.2 1 2.2 1.2 2.2 1.2 2 1.6 2 1.6 1.8 1.6 1.8 1.9 1.8 1.9 1.6 2.1 1.5 2.2 1.5 2.3 1.3 2.4 0.5-1.7 0.5-1.7 0.7-1.7 0.7-1.7 0.7-1.6 0.7-1.6 0.9-1.6 0.7-1.4 1.1-1.4 0.9-1.4 1.1-1.2 1.1-1.2 1.1-1.2 1.1-1 1.3-1 1.3-1 1.5-0.9 1.3-0.9 1.5-0.7 1.6-0.9 1.5-0.5 1.6-0.7 1.8-0.5 1.6-0.5 1.8-0.3 1.8-0.3 2-0.3 2-0.2h2l2.2-0.2h2.2l2.2 0.2 2.2 0.3 2.2 0.5 2.2 0.5 2 0.7 2 0.7 1.8 0.9 1.8 0.9 1.8 0.9 1.6 1 1.6 1 1.6 1 1.5 1.2 1.5 1.2 1.3 1.4 1.3 1.4 1.1 1.4 1.1 1.6 1.1 1.6 0.9 1.6 0.9 1.6 0.7 1.7 0.7 1.7 0.6 1.9 0.4 1.9 0.6 1.9 0.4 2.1 0.2 1.9 0.2 2.1v1.9zm-44.8 68.7v1 1 1l-0.2 0.9v1l-0.2 0.9-0.4 1-0.2 0.9-0.4 0.9-0.4 0.9-0.4 0.9-0.5 0.7-0.6 0.9-0.4 0.7-0.7 0.9-0.5 0.7-0.7 0.7-0.7 0.7-0.7 0.7-0.7 0.7-0.9 0.7-0.7 0.5-0.9 0.7-1.1 0.5-0.9 0.5-1.1 0.5-0.9 0.5-1.3 0.5-1.1 0.3-1.3 0.5-1.6 0.5-1.7 0.5-1.8 0.3-1.6 0.3-1.8 0.3-1.6 0.3-1.6 0.2-1.8 0.2h-1.6l-1.8 0.2h-1.6-1.6l-1.6-0.2-1.8-0.2-1.6-0.2-1.6-0.2-1.8-0.3-1.6-0.3-1.7-0.3-1.6-0.4-1.7-0.5-1.6-0.5-1.8-0.5-1.7-0.5-1.6-0.7-1.7-0.7-1.6-0.7-1.6-0.7-1.6-0.9-1.6-0.9-1.5-0.9-1.6-0.9-2-1-2-1-1.8-0.9-2-1-1.8-1-2-0.9-1.8-1-2-1-1.8-1-2-1-2-0.9-1.8-1-2-1-1.8-1-2-1-2-0.9-1.8-0.9-1.8-0.7-1.6-0.5-1.6-0.3-1.6-0.2-1.5-0.2h-1.5l-1.3 0.2-1.3 0.2-1.1 0.3-1.1 0.3-0.9 0.5-0.9 0.5-0.7 0.5-0.7 0.7-0.5 0.7-1.9 0.9-0.4 0.9-0.2 0.9v0.9 0.9 1l0.4 0.9 0.4 1 0.6 0.9 0.7 1 0.7 0.9 0.9 1 1.1 0.9 1.3 0.9 1.3 0.9 1.6 0.9 0.7 0.2 0.6 0.2 0.7 0.2 0.7 0.2 0.7 0.2 0.7 0.2h0.7l0.7 0.2h0.9l0.7 0.2h0.7 0.9 0.7 0.9 0.9 0.9l1.6-0.2 1.8-0.2 1.8-0.2 2-0.3 2-0.3 1.8-0.3 2.2-0.5 2-0.5-1.1 1.4-1.1 1.4-1.3 1.2-1.5 1.2-1.5 1.2-1.6 0.9-1.6 1-1.8 0.9-1.8 0.7-1.8 0.7-1.8 0.5-2 0.3-2 0.3-2 0.3h-2-2-2l-2-0.3-2-0.3-2-0.3-1.8-0.7-1.8-0.7-2-0.9-1.6-1-1.6-1.8-1.5-1.2-1.6-1.6-1.5-1.6-1.3-1.7-1.3-1.9-1.1-1.9-1.1-2.3-0.2-1.6-0.4-1.4-0.2-1.6v-1.2-1.4l0.2-1.4 0.2-1.2 0.2-1.4 0.4-1 0.6-1.2 0.4-1.2 0.7-1 0.5-1 0.7-0.9 0.9-1 0.9-0.9 0.9-0.9 0.9-0.9 1.1-0.7 1.3-0.7 1.1-0.7 1.3-0.7 1.3-0.5 1.5-0.5 1.5-0.5 1.5-0.3 1.6-0.3 1.6-0.3 1.6-0.2 1.6-0.2 1.8-0.2 1.6-0.2 1.6 0.3 1.5 0.2 1.5 0.3 1.6 0.3 1.5 0.5 1.6 0.3 1.5 0.5 1.6 0.5 1.6 0.5 1.5 0.5 1.6 0.5 1.6 0.7 1.6 0.7 1.6 0.7 1.6 0.7 1.6 0.7 1.6 0.9 1.6 0.7 1.6 0.9 1.8 0.9 3.3 1.7 3.5 1.9 3.5 1.7 3.5 2.1 3.5 1.9 3.7 2.1 1.1 0.7 1.1 0.5 1.3 0.7 1.1 0.5 1.1 0.5 1.3 0.3 1.1 0.5 1.1 0.3 1.3 0.3 1.1 0.3 1.1 0.3 1.1 0.3 1.3 0.2 1.1 0.3 1.1 0.2 1.3 0.2h1.1l1.1 0.2h1.1 1.3l1.1-0.2h1.1l1.3-0.2 1.1-0.2 1.1-0.2 1.3-0.2 1.1-0.3 1.1-0.3 1.1-0.3 1.3-0.3 1.1-0.5 1.1-0.5 0.7-0.2 0.5-0.3 0.4-0.3 0.5-0.3 0.4-0.3 0.6-0.5 0.4-0.4 0.4-0.5 0.2-0.3 0.4-0.5 0.2-0.5 0.2-0.4 0.2-0.5 0.2-0.5v-0.5-0.5-0.5-0.5l-0.2-0.5v-0.4l-0.2-0.5-0.2-0.5-0.4-0.5-0.2-0.5-0.4-0.5-0.4-0.3-0.4-0.5-0.5-0.5-0.5-0.3-0.6-0.5-0.5-0.3-0.7-0.3-1.1-0.3-1.1-0.2-1.1-0.3-1.3-0.2-1.1-0.2-1.1-0.2h-1.1l-1.3-0.2-1.1-0.2h-1.1-1.1-1-1.1-1.1l-1.1 0.2h-1.3l-1.1 0.2-1.1 0.2-1.1 0.2-1.3 0.2-1.1 0.2-1.1 0.3-1.1 0.2-1.1 0.3-1.1 0.3-1.1 0.3-1.3 0.3-1.1 0.5-1.1 0.3-1.1 0.3-1.1 0.5-1.1 0.5 0.9-1.6 1.3-1.6 1.5-1.6 1.5-1.4 1.6-1.4 2-1.2 2-1.2 2-1 2.2-1 2.4-0.9 2.4-0.7 2.4-0.7 2.6-0.7 2.4-0.3 2.6-0.3 2.6-0.2h2.6 2.4l2.4 0.2 2.4 0.3 2.4 0.5 2 0.7 2.2 0.9 1.8 1 1.8 1 1.6 1.4 1.6 1.4 1.3 1.7 1.1 1.9 0.9 1.9 0.7 2.2 0.4 2.4 0.2 1v1.3zm51.2-209.6v2.8l-0.2 2.6-0.4 2.6-0.6 2.6-0.5 2.6-0.7 2.4-0.7 2.4-0.9 2.4-1.1 2.4-1.1 2.2-1.3 2.1-1.5 2.3-1.5 1.9-1.5 2.1-1.6 1.9-1.8 1.7-1.8 1.7-2 1.7-2 1.6-2 1.4-2.2 1.4-2.2 1.4-2.2 1-2.4 1-2.4 1-2.6 0.7-2.4 0.9-2.6 0.5-2.7 0.3-2.6 0.3-2.7 0.2-2.7 0.2h-2l-2-0.2-2-0.2-2-0.3-2-0.3-1.8-0.3-2-0.5-1.8-0.5-1.8-0.5-1.8-0.7-1.8-0.9-1.6-0.7-1.8-0.9-1.6-1-1.7-0.9-1.6-1-1.5-1.2-1.5-1-1.5-1.2-1.5-1.2-1.5-1.4-1.3-1.4-1.3-1.4-1.3-1.4-1.1-1.6-1.1-1.4-1.1-1.6-0.9-1.6-0.9-1.7-0.9-1.7-0.9-1.5-0.7-1.7 2 1 1.8 0.9 2 0.7 1.8 0.3 1.8 0.2h2l1.8-0.2 1.8-0.5 1.8-0.5 1.8-0.7 1.8-0.9 1.8-1 1.6-1 1.8-1.2 1.8-1.2 1.8-1.4 3.7-2.8 3.7-2.8 1.6-1.6 2-1.4 1.8-1.4 1.8-1.2 1.8-1.4 2-1 1.8-1.2 2-0.9 1.8-0.9 2-0.7 2-0.5 2-0.5 1.1-0.2 0.9-0.2 1.1-0.2 0.9-0.2 1.1-0.2h1.1l0.9-0.2h1.1 0.9 1.1 0.9 1.1 0.9 1.1l0.9 0.2h1.1l2 0.3 2 0.2 2 0.3 2 0.5 2 0.3 2.2 0.5 2 0.5 2 0.5v-1.9-1.9l-0.2-1.7-0.4-1.9-0.4-1.9-0.4-1.9-0.7-1.7-0.5-1.9-0.9-1.9-0.9-1.7-0.9-1.7-1.1-1.7-1.1-1.7-1.3-1.7-1.5-1.6-1.3-1.6-1.6-1.6-1.5-1.4-1.6-1.4-1.8-1.2-1.8-1.2-1.2-0.9-2-1-2-0.9-2-0.9-2.2-0.7-2.2-0.7-2.2-0.5-2.4-0.3-2.4-0.2-2.4-0.2h-2.4-2.4-2.6l-2.4 0.3-2.4 0.5-2.6 0.5-2.4 0.5-2.2 0.9-2.4 0.9-2.4 1-2.2 1.2-2.2 1.2-2.2 1.2-2.2 1.4-2 1.6-2 1.6-2 1.5-1.8 1.6-1.6 1.7-1.8 1.9-1.6 1.7-1.5 1.9-1.5 1.9-1.5 1.9-1.3 2.1-1.1 1.9-1.1 1.9-0.9 2.1-0.7 1.9-0.7 2.1-0.5 1.9-0.5 1.9-0.2 1.9-0.4 6.6-0.2 6.4-0.2 3.1v3.1l-0.2 3.1v2.9 3.1 2.9 2.9 3.1l0.2 2.9v2.9l0.2 2.9v2.9l0.2 2.8 0.2 2.9 0.2 2.9 0.4 2.8 0.2 2.9 0.4 2.9 0.2 2.8 0.4 2.9 0.4 2.9 0.6 2.9 0.4 2.8 0.5 2.9 0.4 2.9 0.6 2.9 0.5 2.9 0.7 3.1h-2.7-2.6-2.7-2.6-2.7-2.6-2.8-2.6-2.7-2.6-2.6-2.7-2.6-2.7-2.6-2.8l0.5-2.6 0.6-2.8 0.5-2.8 0.6-2.8 0.5-2.9 0.5-2.8 0.4-3.1 0.5-2.9 0.4-3.1 0.4-3.1 0.6-3.3 0.4-3.1 0.4-3.3 0.4-3.1 0.2-3.3 0.4-3.3 0.4-3.1 0.2-3.3 0.2-3.3 0.2-3.1 0.2-3.1 0.2-3.1 0.2-3.1v-3.1l0.2-2.9v-2.9-2.9-2.8l-0.2-2.8v-2.6l-0.2-2.6-0.2-2.6-0.2-1.7-0.5-1.7-0.6-1.9-0.7-1.7-0.7-1.9-0.9-1.9-1.1-1.9-1.3-1.9-1.1-1.9-1.5-1.9-1.5-1.9-1.5-1.9-1.6-1.9-1.8-1.7-1.7-1.9-2-1.7-1.8-1.6-2-1.6-2-1.6-2.2-1.6-2.2-1.4-2.2-1.2-2.2-1.2-2.4-1-2.4-1-2.2-0.7-2.6-0.9-2.4-0.5-2.4-0.3-2.4-0.4-2.6-0.2h-2.4-2.4l-2.6 0.2-2.2 0.2-2.4 0.3-2.2 0.5-2.2 0.7-2 0.7-2.2 0.9-1.8 0.9-2 1-1.8 1.2-1.8 1.2-1.6 1.2-1.6 1.4-1.5 1.4-1.5 1.6-1.5 1.6-1.3 1.6-1.1 1.7-1.1 1.7-1.1 1.7-0.9 1.7-0.9 1.7-0.7 1.9-0.7 1.9-0.5 1.7-0.4 1.9-0.4 1.9-0.4 1.9-0.2 1.7v1.9 1.9l2-0.5 2-0.5 2-0.5 2-0.3 2-0.5 1.8-0.3 2-0.2 2-0.3h0.9l0.9-0.2h0.9 1.1 0.9 0.9 1.1 0.9 0.9l1.1 0.2h0.9l1.1 0.2 0.9 0.2 1.1 0.2 0.9 0.2 1.1 0.2 2 0.5 2 0.5 2 0.7 1.8 0.9 2 0.9 1.8 1.2 2 1 1.8 1.4 1.8 1.2 1.8 1.4 1.8 1.4 1.8 1.6 3.6 2.8 3.7 2.8 1.8 1.4 1.8 1.2 1.8 1.2 1.6 1 1.8 1 1.8 0.9 1.8 0.7 1.8 0.5 1.8 0.5 1.8 0.2h1.8l2-0.2 1.8-0.3 2-0.7 1.8-0.9 2-1-0.7 1.7-0.9 1.5-0.7 1.7-1.1 1.7-0.9 1.6-1.1 1.6-1.1 1.4-1.1 1.6-1.3 1.4-1.3 1.4-1.3 1.4-1.5 1.4-1.5 1.2-1.5 1.2-1.5 1-1.6 1.2-1.5 1-1.6 0.9-1.8 1-1.6 0.9-1.6 0.7-1.8 0.9-1.8 0.7-1.8 0.5-2 0.5-1.8 0.5-1.8 0.3-2 0.3-2 0.3-2 0.2-2 0.2h-2l-2.7-0.2-2.7-0.2-2.6-0.3-2.7-0.3-2.6-0.5-2.4-0.9-2.6-0.7-2.4-1-2.4-1-2.2-1-2.2-1.4-2.2-1.4-2.2-1.4-1.8-1.6-2-1.7-1.8-1.7-1.6-1.7-1.8-1.9-1.5-2.1-1.5-1.9-1.5-2.3-1.3-2.1-1.1-2.2-1.1-2.4-0.9-2.4-0.7-2.4-0.7-2.4-0.7-2.6-0.4-2.6-0.4-2.6-0.2-2.6v-2.8-2.9l0.2-2.9 0.4-2.9 0.4-2.8 0.7-2.8 0.7-2.6 0.7-2.6 0.9-2.4 1.1-2.4 1.1-2.2 1.3-2.3 1.5-2.1 1.5-2.1 1.5-1.9 1.8-1.9 1.6-1.7 1.8-1.6 2-1.6 1.8-1.6 2.2-1.4 2.2-1.2 2.2-1 2.2-1 2.4-1 2.4-0.9 2.6-0.7 2.4-0.5 2.6-0.5 2.7-0.5 2.6-0.2 2.7-0.2 2.7-0.2 2.9 0.2 2.9 0.2 2.9 0.5 3.1 0.7 2.9 0.7 2.9 1 2.9 1 2.9 1 2.9 1.2 3.1 1.4 2.9 1.2 2.9 1.2 3.1 1.4 3.1 1.2 2.9 1.2 3.1 1.2 3.1 0.9 3.1 1 3.1 0.7 3.1 0.7 3.3 0.5 3.1 0.3h3.3l3.3-0.2 3.3-0.3 3.3-0.7 3.3-0.9 3.5-1.4 3.5-1.6 3.5-1.9 3.5-2.4 3.7-2.6 1.1-1.2 0.9-1 0.9-1.2 1.1-1.4 0.9-1.2 0.9-1.6 0.7-1.4 0.7-1.6 0.9-1.6 0.5-1.6 0.7-1.7 0.5-1.6 0.6-1.7 0.6-1.7 0.4-1.7 0.4-1.7 0.4-1.9 0.2-1.7v-1.7l0.2-1.9v-1.7l-0.2-1.7-0.2-1.9-0.2-1.7-0.6-1.7-0.4-1.7-0.6-1.6-0.7-1.7-0.7-1.6-0.9-1.6-0.9-1.6-1.1-1.6-1.3 1.6-1.3 1.6-0.7 0.7-0.7 0.7-0.7 0.5-0.5 0.7-0.7 0.5-0.7 0.7-0.5 0.5-0.7 0.5-0.7 0.7-0.7 0.3-0.7 0.5-0.7 0.5-0.7 0.5-0.7 0.5-0.7 0.5-0.7 0.3-1.6 0.9-1.6 0.9-1.7 0.9-1.8 0.7-1.8 0.9-2 0.7-2.6 0.7-2.6 0.7-2.4 0.3-2.6 0.3-2.6 0.2h-2.4l-2.6-0.2-2.4-0.2-2.4-0.2-2.4-0.3-2.4-0.3-2.4-0.3-4.4-0.9-4.4-0.7-2.2-0.3-2-0.2-2-0.2h-2-1.8l-1.8 0.2-1.8 0.3-1.6 0.3-1.8 0.7-1.5 0.7-1.6 1-1.5 1.4-1.3 1.4-1.3 1.7-1.3 1.9-1.3 2.2-0.2-2.1v-2.1-2.1l-0.2-1.9 0.2-1.9v-1.9l0.2-1.7 0.2-1.9 0.4-1.7 0.2-1.7 0.4-1.6 0.4-1.7 0.6-1.6 0.4-1.6 0.7-1.6 0.6-1.6 0.7-1.4 0.5-1.4 0.9-1.6 0.7-1.4 0.9-1.4 0.9-1.2 1.1-1.4 1.1-1.4 1.1-1.2 1.1-1.2 1.3-1.2 1.3-1.4 1.3-1 1.5-1.2 1.5-1.2 1.5-1.2 2.2-1.6 2.4-1.2 2.4-1.2 2.4-1.2 2.6-1 2.4-0.7 2.6-0.9 2.6-0.5 2.4-0.5 2.6-0.3 2.6-0.3 2.6-0.2h2.6l2.6 0.2 2.4 0.2 2.6 0.3 2.4 0.5 2.6 0.5 2.4 0.7 2.4 0.7 2.4 1 2.2 1 2.4 1 2.2 1.4 2.2 1.4 2 1.4 2 1.6 2 1.7 1.8 1.9 1.8 1.9 1.6 2.1 1.6 2.3 1.6 2.4 1.6 2.4 1.5 2.4 1.3 2.2 0.9 2.2 1.1 2.2 0.7 2.3 0.7 2.1 0.6 2.1 0.5 2.1 0.4 1.9 0.2 1.9 0.2 1.9v1.9 1.9l-0.2 1.7-0.2 1.7-0.2 1.7-0.4 1.7-0.4 1.7-0.4 1.6-0.6 1.7-0.5 1.6-0.5 1.6-0.6 1.6-0.7 1.6-0.5 1.6-0.7 1.4-1.3 2.9-1.5 2.9 4-1.6 3.8-1.2 3.8-1 3.8-0.7 3.7-0.5 3.7-0.2h3.7l3.7 0.2 3.3 0.5 3.5 0.7 3.3 0.9 3.1 1 3.1 1.4 2.9 1.4 2.9 1.7 2.7 1.7 2.6 1.9 2.4 2.1 2.4 2.2 2.2 2.2 2 2.4 1.8 2.6 1.6 2.6 1.6 2.8 1.3 2.9 1.1 2.8 1.1 2.9 0.7 3.1 0.5 2.9 0.4 3.1 0.2 3.1z"/></svg>